<?xml version="1.0" encoding="iso-8859-1"?>
<!-- Uploaded to: SVG Repo, www.svgrepo.com, Generator: SVG Repo Mixer Tools -->
<svg fill="#d0ad5c" height="100px" width="100px" version="1.1" id="Layer_1" xmlns="http://www.w3.org/2000/svg" xmlns:xlink="http://www.w3.org/1999/xlink" 
	 viewBox="0 0 512 512" xml:space="preserve">
<g>
	<g>
		<path d="M388.902,232.382l-17.193,17.193c-2.861-78.47-40.014-199.658-103.875-245.751c-7.064-5.1-16.603-5.1-23.668,0
			C178.805,51,143.168,173.293,140.284,249.57l-17.186-17.186c-12.687-12.692-34.518-3.704-34.518,14.299v97.89
			c0,92.32,75.103,167.428,167.414,167.428c92.32,0,167.428-75.108,167.428-167.428v-97.89
			C423.42,228.739,401.631,219.653,388.902,232.382z M181.431,236.77h61.088c11.167,0,20.221-9.054,20.221-20.221
			s-9.054-20.221-20.221-20.221h-55.425c1.653-8.27,3.587-16.468,5.763-24.54h49.662c11.167,0,20.221-9.054,20.221-20.221
			s-9.054-20.221-20.221-20.221h-36.383c13.9-35.655,31.883-65.978,49.862-84.378c17.986,18.409,35.977,48.75,49.881,84.424
			c-10.748,0.473-19.324,9.311-19.324,20.175c0,11.167,9.054,20.221,20.221,20.221h12.366c2.176,8.072,4.11,16.271,5.763,24.54
			h-18.127c-11.167,0-20.221,9.053-20.221,20.221s9.054,20.221,20.221,20.221h23.792c0.59,7.575,0.903,15.126,0.903,22.611
			c0,0.643-0.013,1.286-0.019,1.929h-24.675c-11.167,0-20.221,9.054-20.221,20.221s9.054,20.221,20.221,20.221h12.751
			l-63.536,63.528l-63.528-63.528h50.053c11.167,0,20.221-9.054,20.221-20.221s-9.054-20.221-20.221-20.221h-61.971
			c-0.005-0.643-0.019-1.286-0.019-1.929C180.528,251.898,180.841,244.345,181.431,236.77z M382.98,344.57h-0.001
			c0,70.02-56.966,126.986-126.986,126.986c-70.012,0-126.973-56.966-126.973-126.986v-49.072l112.675,112.675
			c7.839,7.84,20.659,7.937,28.595,0.001c32.585-32.581,99.498-99.486,112.69-112.677V344.57z"/>
	</g>
</g>
</svg>